<?xml version="1.0" encoding="UTF-8"?>
<svg width="106px" height="162px" viewBox="0 0 106 162" version="1.1" xmlns="http://www.w3.org/2000/svg" xmlns:xlink="http://www.w3.org/1999/xlink">
    <!-- Generator: Sketch 52.4 (67378) - http://www.bohemiancoding.com/sketch -->
    <title>Group 13</title>
    <desc>Created with Sketch.</desc>
    <g id="Page-1" stroke="none" stroke-width="1" fill="none" fill-rule="evenodd">
        <g id="A&amp;M1" transform="translate(-589.000000, -392.000000)">
            <g id="Group-13" transform="translate(589.000000, 392.000000)">
                <path d="M90.747,133.638 C90.692,133.463 90.659,133.3 90.62,133.134 C88.356,134.462 86.192,134.815 84.175,134.163 C81.359,133.254 78.79,130.436 76.786,126.132 C75.918,127.302 74.977,128.412 73.979,129.469 C76.374,133.924 79.422,136.832 82.945,137.97 C84.006,138.312 85.092,138.481 86.192,138.481 C88.303,138.481 90.463,137.85 92.593,136.615 C91.843,136.064 91.207,135.112 90.747,133.638" id="Fill-174" fill="#9FA1A0"></path>
                <path d="M90.62,133.134 C90.659,133.3 90.692,133.463 90.747,133.638 C91.207,135.112 91.843,136.064 92.593,136.615 C96.359,139.381 103.057,131.788 105.399,126.814 C105.399,126.814 88.668,124.843 90.62,133.134" id="Fill-175" fill="#333635"></path>
                <path d="M30.022,149.289 C25.613,149.289 21.942,151.82 20.081,155.504 C19.308,157.032 19,158.756 19,160.586 L19,162 L41,162 L41,160.586 C41,157.978 40.267,155.585 38.784,153.673 C36.718,151.01 33.653,149.289 30.022,149.289" id="Fill-176" fill="#333635"></path>
                <path d="M64.45,149.289 C60.455,149.289 56.876,151.368 54.866,154.499 C53.739,156.257 53,158.342 53,160.586 L53,162 L76,162 L76,160.586 C76,157.736 74.81,155.141 73.069,153.154 C70.999,150.789 67.84,149.289 64.45,149.289" id="Fill-177" fill="#333635"></path>
                <path d="M13.729,119.398 C13.426,118.731 13.143,118.054 12.879,117.366 C13.143,118.054 13.427,118.731 13.729,119.398" id="Fill-178" fill="#FFFFFE"></path>
                <path d="M15.02,121.982 C14.619,121.257 14.245,120.515 13.893,119.761 C14.245,120.515 14.619,121.257 15.02,121.982" id="Fill-179" fill="#FFFFFE"></path>
                <path d="M11.812,114.125 C11.662,113.591 11.526,113.051 11.4,112.507 C11.525,113.051 11.662,113.59 11.812,114.125" id="Fill-180" fill="#FFFFFE"></path>
                <path d="M12.754,117.048 C12.482,116.321 12.238,115.58 12.013,114.833 C12.237,115.581 12.482,116.32 12.754,117.048" id="Fill-181" fill="#FFFFFE"></path>
                <path d="M47.536,121.7 C23.218,121.7 18.921,107.184 18.921,101.648 C18.921,87.249 36.215,80.877 47.536,80.877 C58.855,80.877 76.151,87.249 76.151,101.648 C76.151,107.184 71.853,121.7 47.536,121.7 M25.49,133.9 C23.762,132.628 22.153,131.207 20.673,129.66 L29.954,134.479 L25.49,133.9 M33.607,61.635 C37.661,61.778 40.832,65.184 40.685,69.239 C40.541,73.294 37.138,76.465 33.083,76.32 C29.025,76.175 25.856,72.769 26.002,68.714 C26.147,64.659 29.552,61.489 33.607,61.635 M17.454,11.848 C21.69,9.848 26.885,27.181 26.885,27.181 C18.219,23.181 13.218,13.848 17.454,11.848 M60.865,61.635 C64.921,61.489 68.325,64.659 68.471,68.714 C68.616,72.769 65.447,76.175 61.39,76.32 C57.335,76.465 53.932,73.294 53.787,69.239 C53.641,65.184 56.812,61.778 60.865,61.635 M76.981,11.848 C81.218,13.848 76.217,23.181 67.551,27.181 C67.551,27.181 72.745,9.848 76.981,11.848 M79.352,122.158 L70.308,125.92 L83.117,112.31 C83.701,109.709 84.018,107.008 84.018,104.23 C84.018,101.327 83.672,98.506 83.036,95.797 C85.98,92.221 88.392,88.19 90.167,83.834 L78.551,76.514 C78.551,76.514 87.878,77.812 92.025,78.3 C92.475,76.613 92.832,74.889 93.09,73.133 L77.255,70.181 L93.563,67.319 C93.57,66.997 93.588,66.678 93.588,66.354 C93.588,63.234 93.274,60.19 92.687,57.243 C93.002,58.824 93.232,60.433 93.383,62.069 L74.921,65.641 C74.921,65.641 88.894,58.968 92.681,57.204 C91.264,50.128 88.23,43.639 83.989,38.125 L66.255,51.35 L80.505,34.096 C78.858,32.398 77.088,30.823 75.199,29.393 C75.801,28.913 76.4,28.399 76.981,27.848 C79.226,25.72 93.884,12.181 83.551,3.514 C73.218,-5.152 64.551,9.421 61.885,18.003 C61.423,19.489 60.958,20.791 60.506,21.94 C59.244,21.565 57.963,21.232 56.658,20.963 L56.617,21.25 C51.331,21.986 47.236,40.931 47.236,40.931 C47.236,40.931 43.142,21.986 37.855,21.25 L37.814,20.963 C36.498,21.235 35.206,21.569 33.934,21.95 C33.48,20.798 33.014,19.493 32.551,18.003 C29.885,9.421 21.218,-5.152 10.885,3.514 C0.552,12.181 15.21,25.72 17.454,27.848 C18.042,28.404 18.646,28.923 19.254,29.407 C17.373,30.834 15.608,32.404 13.968,34.096 L28.218,51.35 L10.483,38.125 C11.012,37.438 11.561,36.768 12.126,36.112 C7.023,42.031 3.386,49.246 1.792,57.204 C5.578,58.968 19.552,65.641 19.552,65.641 L1.09,62.069 C1.24,60.431 1.472,58.818 1.786,57.235 C1.198,60.185 0.885,63.232 0.885,66.354 C0.885,66.678 0.902,66.997 0.909,67.319 L17.218,70.181 L1.383,73.133 C1.641,74.889 1.998,76.613 2.446,78.3 C6.595,77.812 15.922,76.514 15.922,76.514 L4.306,83.834 C3.96,82.985 3.642,82.122 3.345,81.249 C5.161,86.604 7.918,91.523 11.436,95.797 C10.801,98.507 10.454,101.327 10.454,104.23 C10.454,106.874 10.739,109.45 11.269,111.937 L24.43,125.92 L15.065,122.012 C16.437,124.492 18,126.798 20,128.886 L20,139.348 L31.055,143.181 L20,145.181 L20,155.504 C22,151.82 25.67,149.289 30.079,149.289 C33.71,149.289 37,151.01 39,153.673 L39,140.063 C42,140.677 44.439,141.013 47.293,141.013 C49.937,141.013 52,140.727 55,140.197 L55,154.499 C57,151.368 60.512,149.289 64.507,149.289 C67.896,149.289 71,150.789 73,153.154 L73,145.181 L61.945,143.181 L73,139.348 L73,130.784 C72,131.901 70.579,132.944 69.278,133.9 L64.799,134.479 L73.541,129.937 C73.691,129.782 73.836,129.625 73.983,129.469 C74.981,128.412 75.92,127.302 76.788,126.132 C77.727,124.868 78.579,123.539 79.352,122.158" id="Fill-182" fill="#FFFFFE"></path>
                <path d="M1.379,73.099 C1.246,72.19 1.145,71.271 1.067,70.345 C1.146,71.269 1.246,72.19 1.379,73.099" id="Fill-183" fill="#FFFFFE"></path>
                <path d="M3.253,80.977 C2.962,80.104 2.693,79.222 2.454,78.327 C2.693,79.222 2.963,80.104 3.253,80.977" id="Fill-184" fill="#FFFFFE"></path>
                <path d="M82.352,36.119 C82.915,36.773 83.462,37.44 83.989,38.125 C83.463,37.44 82.916,36.773 82.352,36.119" id="Fill-185" fill="#FFFFFE"></path>
                <path d="M80.515,34.106 C81.11,34.721 81.688,35.352 82.249,35.999 C81.688,35.352 81.11,34.721 80.515,34.106" id="Fill-186" fill="#FFFFFE"></path>
                <path d="M12.218,36.006 C12.783,35.354 13.366,34.716 13.967,34.097 C13.366,34.716 12.784,35.354 12.218,36.006" id="Fill-187" fill="#FFFFFE"></path>
                <path d="M1.05,70.117 C0.977,69.191 0.929,68.259 0.909,67.319 C0.929,68.26 0.976,69.191 1.05,70.117" id="Fill-188" fill="#FFFFFE"></path>
                <path d="M91.127,81.253 C90.83,82.124 90.513,82.986 90.167,83.834 C90.513,82.986 90.831,82.125 91.127,81.253" id="Fill-189" fill="#FFFFFE"></path>
                <path d="M92.017,78.331 C91.778,79.224 91.511,80.104 91.221,80.974 C91.511,80.104 91.778,79.224 92.017,78.331" id="Fill-190" fill="#FFFFFE"></path>
                <path d="M93.563,67.319 C93.544,68.259 93.495,69.191 93.423,70.117 C93.497,69.191 93.544,68.26 93.563,67.319" id="Fill-191" fill="#FFFFFE"></path>
                <path d="M93.405,70.345 C93.328,71.271 93.227,72.189 93.094,73.098 C93.227,72.189 93.326,71.269 93.405,70.345" id="Fill-192" fill="#FFFFFE"></path>
                <path d="M61.062,66.512 C62.509,66.562 63.641,67.777 63.59,69.225 C63.574,69.693 63.424,70.122 63.196,70.495 C62.774,69.335 61.764,68.352 60.231,68.298 C59.423,68.27 58.807,68.506 58.367,68.898 C58.493,67.52 59.663,66.462 61.062,66.512 M53.787,69.239 C53.932,73.294 57.335,76.465 61.39,76.32 C65.447,76.175 68.616,72.769 68.471,68.714 C68.325,64.659 64.921,61.489 60.865,61.635 C56.812,61.778 53.641,65.184 53.787,69.239" id="Fill-193" fill="#333635"></path>
                <path d="M63.196,70.495 C63.424,70.122 63.574,69.693 63.59,69.225 C63.641,67.777 62.509,66.562 61.062,66.512 C59.663,66.462 58.493,67.52 58.367,68.898 C58.807,68.506 59.423,68.27 60.231,68.298 C61.764,68.352 62.774,69.335 63.196,70.495" id="Fill-194" fill="#FFFFFE"></path>
                <path d="M33.411,66.512 C34.81,66.462 35.979,67.519 36.105,68.898 C35.666,68.506 35.05,68.269 34.241,68.298 C32.709,68.352 31.698,69.335 31.276,70.495 C31.049,70.122 30.898,69.693 30.883,69.225 C30.832,67.777 31.964,66.563 33.411,66.512 Z M33.083,76.32 C37.138,76.465 40.541,73.294 40.686,69.239 C40.832,65.184 37.661,61.778 33.607,61.635 C29.552,61.489 26.147,64.659 26.002,68.714 C25.856,72.769 29.025,76.175 33.083,76.32 Z" id="Fill-195" fill="#333635"></path>
                <path d="M34.241,68.298 C35.05,68.269 35.666,68.506 36.105,68.898 C35.979,67.519 34.81,66.462 33.411,66.512 C31.964,66.563 30.832,67.777 30.883,69.225 C30.898,69.693 31.049,70.122 31.276,70.495 C31.698,69.335 32.709,68.352 34.241,68.298" id="Fill-196" fill="#FFFFFE"></path>
                <path d="M31.317,104.103 C32.052,99.603 40.494,102.173 39.024,111.714 C39.024,111.714 30.586,108.602 31.317,104.103 M63.124,104.103 C63.856,108.602 55.417,111.714 55.417,111.714 C53.948,102.173 62.389,99.603 63.124,104.103 M76.151,101.648 C76.151,87.249 58.855,80.877 47.536,80.877 C36.215,80.877 18.921,87.249 18.921,101.648 C18.921,107.184 23.218,121.7 47.536,121.7 C71.853,121.7 76.151,107.184 76.151,101.648" id="Fill-197" fill="#333635"></path>
                <path d="M63.124,104.103 C62.389,99.603 53.948,102.173 55.417,111.714 C55.417,111.714 63.856,108.602 63.124,104.103" id="Fill-198" fill="#FFFFFE"></path>
                <path d="M39.024,111.714 C40.494,102.173 32.052,99.604 31.317,104.102 C30.586,108.602 39.024,111.714 39.024,111.714" id="Fill-199" fill="#FFFFFE"></path>
                <path d="M17.454,11.848 C13.218,13.848 18.219,23.181 26.885,27.181 C26.885,27.181 21.69,9.848 17.454,11.848" id="Fill-200" fill="#333635"></path>
                <path d="M76.981,11.848 C72.745,9.848 67.551,27.181 67.551,27.181 C76.217,23.181 81.218,13.848 76.981,11.848" id="Fill-201" fill="#333635"></path>
                <path d="M47.236,40.931 C47.236,40.931 51.331,21.986 56.617,21.25 L56.658,20.963 L58.903,5.431 C58.903,5.431 54.903,0.514 47.236,0.514 C39.569,0.514 35.569,5.431 35.569,5.431 L37.814,20.963 L37.855,21.25 C43.142,21.986 47.236,40.931 47.236,40.931" id="Fill-202" fill="#333635"></path>
                <path d="M15.922,76.514 C15.922,76.514 6.595,77.813 2.446,78.3 L2.454,78.327 C2.693,79.222 2.962,80.104 3.253,80.977 C3.283,81.067 3.313,81.158 3.345,81.249 C3.642,82.122 3.96,82.985 4.306,83.834 L15.922,76.514" id="Fill-203" fill="#333635"></path>
                <path d="M0.909,67.319 C0.929,68.259 0.977,69.191 1.05,70.117 L1.067,70.345 C1.145,71.271 1.246,72.19 1.379,73.099 L1.383,73.133 L17.218,70.181 L0.909,67.319" id="Fill-204" fill="#333635"></path>
                <path d="M19.552,65.641 C19.552,65.641 5.578,58.968 1.792,57.204 L1.786,57.235 C1.472,58.818 1.24,60.431 1.09,62.068 L19.552,65.641" id="Fill-205" fill="#333635"></path>
                <path d="M28.218,51.35 L13.968,34.096 L13.967,34.097 C13.366,34.716 12.783,35.354 12.218,36.006 L12.126,36.112 C11.561,36.768 11.012,37.438 10.483,38.125 L28.218,51.35" id="Fill-206" fill="#333635"></path>
                <path d="M90.167,83.834 C90.513,82.986 90.83,82.124 91.127,81.253 C91.158,81.159 91.19,81.066 91.221,80.974 C91.511,80.104 91.778,79.224 92.017,78.331 L92.026,78.3 L92.025,78.3 C87.878,77.812 78.551,76.514 78.551,76.514 L90.167,83.834" id="Fill-207" fill="#333635"></path>
                <path d="M93.09,73.133 L93.094,73.098 C93.227,72.189 93.328,71.271 93.405,70.345 L93.423,70.117 C93.495,69.191 93.544,68.259 93.563,67.319 L77.255,70.181 L93.09,73.133" id="Fill-208" fill="#333635"></path>
                <path d="M93.383,62.069 C93.232,60.433 93.002,58.824 92.687,57.243 L92.681,57.204 C88.894,58.968 74.921,65.641 74.921,65.641 L93.383,62.069" id="Fill-209" fill="#333635"></path>
                <path d="M83.989,38.125 C83.462,37.44 82.915,36.773 82.352,36.119 L82.249,35.999 C81.688,35.352 81.11,34.721 80.515,34.106 L80.505,34.096 L66.255,51.35 L83.989,38.125" id="Fill-210" fill="#333635"></path>
                <polyline id="Fill-211" fill="#333635" points="20 139.348 20 145.181 31.055 143.181 20 139.348"></polyline>
                <polyline id="Fill-212" fill="#333635" points="73 145.181 73 139.348 61.945 143.181 73 145.181"></polyline>
                <path d="M24.43,125.914 L11.269,111.934 L11.251,111.916 C11.294,112.115 11.354,112.308 11.4,112.506 C11.526,113.05 11.662,113.591 11.812,114.125 C11.878,114.361 11.941,114.598 12.013,114.833 C12.238,115.58 12.482,116.321 12.754,117.048 C12.793,117.155 12.838,117.26 12.879,117.366 C13.143,118.054 13.426,118.731 13.729,119.398 C13.784,119.519 13.837,119.641 13.893,119.761 C14.245,120.515 14.619,121.252 15.02,121.977 L15.034,122 L15.037,122 L24.43,125.914" id="Fill-213" fill="#333635"></path>
                <path d="M20.673,129.66 C22.153,131.207 23.762,132.628 25.49,133.9 L29.954,134.479 L20.673,129.66" id="Fill-214" fill="#333635"></path>
                <path d="M70.308,125.92 L79.352,122.158 L79.703,122.012 C81.431,118.894 82.718,115.502 83.487,111.917 L83.117,112.31 L70.308,125.92" id="Fill-215" fill="#333635"></path>
                <path d="M64.784,134.479 L69.25,133.9 C70.551,132.944 71.782,131.901 72.943,130.784 C73.325,130.417 73.699,130.043 74.065,129.66 L73.534,129.937 L64.784,134.479" id="Fill-216" fill="#333635"></path>
                <path d="M86.192,138.481 C85.092,138.481 84.006,138.312 82.945,137.97 C79.422,136.832 76.375,133.925 73.981,129.471 C73.982,129.47 73.982,129.47 73.983,129.469 C74.981,128.413 75.919,127.303 76.787,126.133 C78.79,130.437 81.36,133.254 84.175,134.163 C84.832,134.376 85.505,134.481 86.192,134.481 C87.612,134.481 89.094,134.029 90.62,133.134 C90.659,133.3 90.692,133.463 90.747,133.638 C91.207,135.112 91.843,136.064 92.593,136.615 C90.463,137.85 88.303,138.481 86.192,138.481" id="Fill-218" fill="#A9ACAA"></path>
                <path d="M94.421,137.205 C93.764,137.205 93.147,137.022 92.593,136.615 C91.843,136.064 91.207,135.112 90.747,133.638 C90.692,133.463 90.659,133.3 90.62,133.134 C90.532,132.761 90.482,132.408 90.467,132.075 C90.25,127.397 96.877,126.609 101.373,126.609 C103.596,126.609 105.299,126.802 105.395,126.813 C105.398,126.813 105.399,126.814 105.399,126.814 C103.401,131.057 98.235,137.205 94.421,137.205" id="Fill-219" fill="#454846"></path>
                <path d="M75.943,162 L53,162 L53,160.586 C53,159.575 53.15,158.596 53.418,157.664 C53.781,156.529 54.324,155.465 54.943,154.499 L54.943,154.38 C54.962,154.352 54.981,154.324 55,154.295 L55,154.499 C56.996,151.375 60.497,149.298 64.481,149.289 C66.619,149.295 68.664,149.897 70.401,150.936 C71.363,151.523 72.223,152.25 72.943,153.088 L72.943,153.154 C74.684,155.141 75.943,157.736 75.943,160.586 L75.943,162" id="Fill-220" fill="#454846"></path>
                <path d="M55,154.499 L55,140.197 C54.981,140.201 54.962,140.204 54.943,140.207 L54.943,140.197 C54.843,140.219 54.743,140.239 54.643,140.26 C52.93,140.559 51.517,140.773 50.1,140.895 C49.277,140.958 48.447,140.994 47.61,141.003 L47.61,121.7 C71.86,121.67 76.151,107.178 76.151,101.648 C76.151,87.281 58.931,80.905 47.61,80.877 L47.61,39.335 C48.734,34.755 52.273,21.855 56.617,21.25 L56.658,20.963 C57.963,21.232 59.244,21.565 60.506,21.94 C60.959,20.791 61.423,19.489 61.885,18.003 C63.976,11.272 69.758,0.856 77.14,0.856 C79.17,0.856 81.322,1.644 83.551,3.514 C86.195,5.731 87.202,8.268 87.201,10.85 C87.195,18.362 78.651,26.264 76.981,27.848 C76.4,28.399 75.801,28.913 75.199,29.393 C77.088,30.823 78.858,32.398 80.505,34.096 L66.255,51.35 L83.989,38.125 C88.23,43.639 91.264,50.128 92.681,57.204 C88.894,58.968 74.921,65.641 74.921,65.641 L93.383,62.069 C93.232,60.433 93.002,58.824 92.687,57.243 C93.27,60.167 93.583,63.187 93.588,66.28 C93.588,66.305 93.588,66.329 93.588,66.354 C93.588,66.678 93.57,66.997 93.563,67.319 L77.255,70.181 L93.09,73.133 C92.832,74.889 92.475,76.613 92.025,78.3 C87.878,77.812 78.551,76.514 78.551,76.514 L90.167,83.834 C88.391,88.19 85.98,92.221 83.035,95.797 C83.672,98.506 84.018,101.327 84.018,104.23 C84.018,104.25 84.018,104.27 84.018,104.29 C84.018,104.294 84.018,104.299 84.018,104.303 C84.018,104.322 84.018,104.341 84.018,104.36 L84.018,104.361 C84.008,107.092 83.692,109.75 83.117,112.31 L70.308,125.92 L79.352,122.158 C78.847,123.061 78.308,123.941 77.733,124.795 C77.427,125.248 77.111,125.694 76.786,126.132 L76.787,126.133 C75.919,127.303 74.981,128.413 73.983,129.469 C73.982,129.47 73.982,129.47 73.981,129.471 C73.98,129.47 73.98,129.47 73.979,129.469 C73.83,129.627 73.681,129.784 73.529,129.939 L64.784,134.479 L64.804,134.477 L64.799,134.479 L69.278,133.9 C70.555,132.962 71.947,131.94 72.943,130.847 L72.943,139.367 L61.945,143.181 L72.943,145.17 L72.943,153.088 C72.223,152.25 71.363,151.523 70.401,150.936 C68.69,149.892 66.656,149.289 64.507,149.289 C64.498,149.289 64.49,149.289 64.481,149.289 C60.497,149.298 56.996,151.375 55,154.499 M61.123,76.325 C61.212,76.325 61.3,76.323 61.39,76.32 C65.36,76.178 68.48,72.914 68.475,68.974 C68.475,68.888 68.474,68.801 68.471,68.714 C68.469,68.662 68.466,68.61 68.463,68.559 C68.463,68.545 68.462,68.531 68.461,68.516 C68.22,64.65 65.01,61.636 61.145,61.63 C61.141,61.63 61.137,61.63 61.133,61.63 C61.044,61.63 60.955,61.632 60.865,61.635 C56.899,61.775 53.777,65.039 53.782,68.979 C53.782,69.065 53.784,69.152 53.787,69.239 C53.928,73.201 57.181,76.319 61.112,76.325 C61.116,76.325 61.119,76.325 61.123,76.325 M67.563,27.139 C67.555,27.167 67.551,27.181 67.551,27.181 C74.067,24.173 78.511,18.15 78.514,14.496 C78.515,13.291 78.032,12.344 76.981,11.848 C76.75,11.739 76.517,11.687 76.281,11.687 C76.273,11.687 76.264,11.687 76.257,11.687 C72.299,11.744 67.831,26.259 67.563,27.139" id="Fill-221" fill="#FFFFFE"></path>
                <path d="M90.167,83.834 C90.513,82.986 90.83,82.124 91.127,81.253 C90.83,82.125 90.513,82.986 90.167,83.834" id="Fill-223" fill="#FFFFFE"></path>
                <path d="M93.423,70.117 C93.495,69.191 93.544,68.259 93.563,67.319 C93.544,68.26 93.497,69.191 93.423,70.117" id="Fill-224" fill="#FFFFFE"></path>
                <path d="M61.123,76.325 C61.119,76.325 61.116,76.325 61.112,76.325 C57.181,76.318 53.928,73.201 53.787,69.239 C53.784,69.152 53.782,69.065 53.782,68.979 C53.777,65.039 56.899,61.775 60.865,61.635 C60.955,61.632 61.044,61.63 61.133,61.63 C61.137,61.63 61.141,61.63 61.145,61.63 C65.01,61.636 68.22,64.65 68.461,68.516 C68.462,68.531 68.463,68.545 68.463,68.559 C68.466,68.61 68.469,68.662 68.471,68.714 C68.474,68.801 68.475,68.888 68.475,68.974 C68.48,72.914 65.36,76.178 61.39,76.32 C61.3,76.323 61.212,76.325 61.123,76.325 M60.231,68.298 C61.764,68.352 62.774,69.335 63.196,70.495 C63.424,70.122 63.574,69.693 63.59,69.225 C63.591,69.191 63.591,69.157 63.591,69.123 C63.587,67.721 62.475,66.561 61.062,66.512 C61.03,66.511 60.998,66.51 60.967,66.51 C60.964,66.51 60.961,66.51 60.959,66.51 C59.638,66.514 58.542,67.505 58.377,68.803 C58.375,68.823 58.373,68.842 58.371,68.861 C58.369,68.873 58.368,68.885 58.367,68.898 C58.382,68.884 58.397,68.871 58.412,68.859 C58.418,68.854 58.424,68.849 58.43,68.844 C58.838,68.506 59.389,68.297 60.093,68.296 C60.096,68.296 60.098,68.296 60.101,68.296 C60.102,68.296 60.102,68.296 60.103,68.296 C60.145,68.296 60.188,68.296 60.231,68.298" id="Fill-225" fill="#454846"></path>
                <path d="M63.196,70.495 C62.774,69.335 61.764,68.352 60.231,68.298 C60.188,68.296 60.145,68.296 60.103,68.296 C60.102,68.296 60.102,68.296 60.101,68.296 C60.098,68.296 60.096,68.296 60.093,68.296 C59.389,68.297 58.838,68.506 58.43,68.844 C58.424,68.849 58.418,68.854 58.412,68.859 C58.397,68.871 58.382,68.884 58.367,68.898 C58.368,68.885 58.369,68.873 58.371,68.861 C58.373,68.842 58.375,68.823 58.377,68.803 C58.542,67.505 59.638,66.514 60.959,66.51 C60.961,66.51 60.964,66.51 60.967,66.51 C60.998,66.51 61.03,66.511 61.062,66.512 C62.475,66.561 63.587,67.721 63.591,69.123 C63.591,69.157 63.591,69.191 63.59,69.225 C63.574,69.693 63.424,70.122 63.196,70.495" id="Fill-226" fill="#FFFFFE"></path>
                <path d="M47.61,121.7 L47.61,80.877 C58.931,80.905 76.151,87.281 76.151,101.648 C76.151,107.178 71.86,121.67 47.61,121.7 M55.406,111.642 C55.41,111.666 55.413,111.69 55.417,111.714 C55.417,111.714 63.162,108.858 63.169,104.662 C63.169,104.478 63.155,104.291 63.124,104.103 C63.12,104.081 63.117,104.061 63.113,104.04 C63.113,104.038 63.113,104.037 63.112,104.035 C62.857,102.646 61.853,101.952 60.643,101.952 C60.642,101.952 60.641,101.952 60.64,101.952 C60.635,101.952 60.63,101.952 60.625,101.952 C58.009,101.964 54.447,105.201 55.405,111.635 C55.405,111.637 55.406,111.64 55.406,111.642" id="Fill-227" fill="#454846"></path>
                <path d="M55.417,111.714 C55.413,111.69 55.41,111.666 55.406,111.642 C55.406,111.64 55.405,111.637 55.405,111.635 C54.447,105.201 58.009,101.964 60.625,101.952 C60.63,101.952 60.635,101.952 60.64,101.952 C60.641,101.952 60.642,101.952 60.643,101.952 C61.853,101.953 62.858,102.646 63.112,104.035 C63.113,104.037 63.113,104.038 63.113,104.04 C63.117,104.061 63.12,104.081 63.124,104.103 C63.155,104.291 63.169,104.478 63.169,104.662 C63.162,108.858 55.417,111.714 55.417,111.714" id="Fill-228" fill="#FFFFFE"></path>
                <path d="M67.551,27.181 C67.551,27.181 67.555,27.167 67.563,27.139 C67.831,26.259 72.299,11.744 76.257,11.687 C76.264,11.687 76.273,11.687 76.281,11.687 C76.517,11.687 76.751,11.739 76.981,11.848 C78.032,12.344 78.515,13.291 78.514,14.496 C78.511,18.15 74.067,24.173 67.551,27.181" id="Fill-229" fill="#454846"></path>
                <path d="M47.61,39.335 L47.61,0.528 C55.003,0.688 58.878,5.4 58.903,5.431 L56.658,20.963 L56.617,21.25 C52.273,21.855 48.734,34.755 47.61,39.335" id="Fill-230" fill="#454846"></path>
                <path d="M90.167,83.834 L78.551,76.514 C78.551,76.514 87.878,77.812 92.025,78.3 L92.026,78.3 L92.017,78.331 C91.884,78.829 91.741,79.323 91.591,79.814 C91.472,80.203 91.348,80.589 91.221,80.974 C91.189,81.066 91.158,81.159 91.127,81.253 C90.83,82.124 90.513,82.986 90.167,83.834" id="Fill-231" fill="#454846"></path>
                <path d="M93.09,73.133 L77.255,70.181 L93.563,67.319 C93.544,68.259 93.495,69.191 93.423,70.117 L93.405,70.345 C93.326,71.269 93.227,72.189 93.094,73.098 L93.09,73.133" id="Fill-232" fill="#454846"></path>
                <path d="M74.921,65.641 C74.921,65.641 88.894,58.968 92.681,57.204 L92.687,57.243 C93.002,58.824 93.232,60.433 93.383,62.069 L74.921,65.641" id="Fill-233" fill="#454846"></path>
                <path d="M83.656,37.698 C83.233,37.162 82.797,36.636 82.352,36.119 C82.798,36.636 83.234,37.162 83.656,37.698" id="Fill-234" fill="#FFFFFE"></path>
                <path d="M66.255,51.35 L80.505,34.096 L80.515,34.106 C81.11,34.721 81.688,35.352 82.249,35.999 L82.352,36.119 C82.797,36.636 83.233,37.162 83.656,37.698 C83.768,37.84 83.878,37.982 83.988,38.125 L83.989,38.125 L66.255,51.35" id="Fill-235" fill="#454846"></path>
                <polyline id="Fill-236" fill="#454846" points="72.943 145.17 61.945 143.181 72.943 139.367 72.943 145.17"></polyline>
                <path d="M70.308,125.92 L83.117,112.31 L83.13,112.296 C82.346,115.797 81.063,119.11 79.359,122.155 L79.352,122.158 L70.308,125.92" id="Fill-237" fill="#454846"></path>
                <path d="M64.784,134.479 L73.529,129.939 C73.336,130.137 73.141,130.333 72.943,130.526 L72.943,130.784 C71.782,131.901 70.551,132.944 69.25,133.9 L64.804,134.477 L64.784,134.479" id="Fill-238" fill="#454846"></path>
            </g>
        </g>
    </g>
</svg>