<?xml version="1.0" encoding="UTF-8"?>
<svg width="105px" height="190px" viewBox="0 0 105 190" version="1.1" xmlns="http://www.w3.org/2000/svg" xmlns:xlink="http://www.w3.org/1999/xlink">
    <!-- Generator: Sketch 52.4 (67378) - http://www.bohemiancoding.com/sketch -->
    <title>Group 3</title>
    <desc>Created with Sketch.</desc>
    <g id="Page-1" stroke="none" stroke-width="1" fill="none" fill-rule="evenodd">
        <g id="A&amp;M1" transform="translate(-429.000000, -23.000000)">
            <g id="Group-3" transform="translate(429.000000, 23.000000)">
                <path d="M90.039,161.248 C89.984,161.073 89.951,160.91 89.912,160.744 C87.648,162.072 85.483,162.424 83.467,161.773 C80.651,160.864 78.082,158.046 76.078,153.742 C80.621,147.623 83.31,140.046 83.31,131.84 C83.31,128.937 82.964,126.116 82.328,123.407 C79.901,126.355 77.115,128.993 74.04,131.265 C74.03,135.652 71.183,145.879 56.998,149.224 C56.94,150.444 56.881,151.664 56.823,152.883 C56.69,155.71 54.616,157.889 51.774,157.825 C48.948,157.757 47,155.47 47,152.638 L47,153.293 C47,155.951 44.55,158.099 41.892,158.158 C41.692,158.162 41.414,158.165 41.211,158.169 C38.555,158.237 36.248,156.192 36.122,153.537 C36.052,152.035 35.953,150.533 35.882,149.031 C22.821,145.61 19.828,136.202 19.641,131.699 C16.326,129.331 13.322,126.547 10.736,123.407 C10.101,126.117 9.777,128.937 9.777,131.84 C9.777,141.165 13,149.675 19,156.158 L19,182.098 C21,178.974 24.509,176.899 28.5,176.899 C32.49,176.899 36,178.974 38,182.098 L38,167.605 C41,168.264 43.628,168.623 46.585,168.623 C49.125,168.623 52,168.365 54,167.874 L54,181.388 C56,178.666 59.321,176.899 63,176.899 C66.679,176.899 70,178.666 72,181.388 L72,158.415 C72,157.98 72.868,157.535 73.3,157.078 C75.694,161.533 78.728,164.441 82.252,165.579 C83.313,165.922 84.391,166.092 85.491,166.092 C87.601,166.092 89.759,165.46 91.889,164.225 C91.139,163.674 90.499,162.722 90.039,161.248" id="Fill-145" fill="#63818C"></path>
                <path d="M89.912,160.744 C89.951,160.91 89.984,161.073 90.039,161.248 C90.499,162.722 91.135,163.674 91.885,164.225 C95.651,166.991 102.349,159.398 104.691,154.423 C104.691,154.423 87.96,152.452 89.912,160.744" id="Fill-146" fill="#769099"></path>
                <path d="M28.443,176.899 C24.452,176.899 20.88,178.974 18.87,182.098 C17.738,183.857 17,185.947 17,188.196 L17,190 L40,190 L40,188.196 C40,185.947 39.205,183.858 38.073,182.098 C36.063,178.974 32.434,176.899 28.443,176.899" id="Fill-147" fill="#F5C9AB"></path>
                <path d="M62.943,176.899 C59.264,176.899 56.182,178.666 54.12,181.388 C52.685,183.282 52,185.636 52,188.196 L52,190 L74,190 L74,188.196 C74,185.636 73.259,183.283 71.823,181.388 C69.761,178.666 66.622,176.899 62.943,176.899" id="Fill-148" fill="#F5C9AB"></path>
                <path d="M28.065,90.153 C33.274,90.337 37.348,94.712 37.16,99.923 C36.975,105.133 32.602,109.207 27.392,109.022 C22.179,108.835 18.106,104.46 18.293,99.249 C18.481,94.039 22.853,89.965 28.065,90.153 M21.238,35.934 C20.535,30.412 19.971,19.479 23.119,18.456 C26.267,17.434 31.392,43.801 30.852,52.776 L28.25,54.25 C28.25,54.25 21.939,41.457 21.238,35.934 M70.239,16.388 C73.331,17.568 72.219,28.458 71.24,33.939 C70.262,39.418 63.318,51.879 63.318,51.879 L60.794,50.276 C60.705,41.287 67.146,15.209 70.239,16.388 M73.509,99.249 C73.696,104.46 69.624,108.835 64.41,109.022 C59.2,109.207 54.827,105.133 54.642,99.923 C54.454,94.712 58.527,90.337 63.736,90.153 C68.948,89.965 73.322,94.039 73.509,99.249 M19.626,131.699 C19.62,131.54 19.615,131.386 19.615,131.24 C19.615,117.546 36.041,111.487 46.808,111.487 C57.572,111.487 74,117.546 74,131.24 L74,131.265 C77,128.993 79.882,126.355 82.308,123.407 C88.899,115.4 92.869,105.145 92.869,93.964 C92.869,76.967 83.721,62.115 70.079,54.047 C72.405,50.636 77.58,42.614 79.645,35.851 C82.348,26.999 82.525,2.73 75.375,0.591 C68.507,-1.464 53.743,20.787 55.97,48.578 C53.594,48.086 51.15,47.779 48.656,47.667 C49.804,46.639 51.133,45.806 52.52,44.912 C53.223,44.458 52.96,43.461 52.032,43.634 C49.739,44.06 47.851,46 46.567,48 L46.528,48 C46.129,48 45.734,47.826 45.337,47.837 C46.035,45.64 46.835,43.48 48.081,41.456 C48.478,40.812 47.648,39.984 47.065,40.52 C44.967,42.444 43.856,44.959 43.674,47.733 C43.513,47.743 43.353,47.746 43.191,47.758 C42.494,44.317 42.926,41.241 43.817,37.734 C44.101,36.625 42.705,35.858 42.002,36.832 C39.67,40.065 39.377,44.331 40.778,47.982 C39.171,48.181 37.59,48.461 36.038,48.821 C38.554,22.308 25.532,0.766 18.779,2.422 C11.531,4.2 10.49,28.447 12.746,37.422 C14.356,43.831 18.62,51.475 20.929,55.326 C8.424,63.627 0.177,77.831 0.177,93.964 C0.177,105.145 4.137,115.401 10.728,123.407 C13.315,126.547 16.311,129.331 19.626,131.699" id="Fill-149" fill="#769099"></path>
                <path d="M67.237,99.906 C67.217,100.507 67.024,101.058 66.731,101.538 C66.189,100.046 64.891,98.783 62.922,98.714 C61.884,98.677 61.092,98.982 60.527,99.484 C60.688,97.714 62.192,96.355 63.989,96.419 C65.848,96.484 67.303,98.046 67.237,99.906 M54.642,99.923 C54.827,105.133 59.2,109.207 64.41,109.022 C69.624,108.835 73.696,104.46 73.509,99.249 C73.322,94.039 68.948,89.965 63.736,90.153 C58.527,90.337 54.454,94.712 54.642,99.923" id="Fill-150" fill="#FFFFFE"></path>
                <path d="M60.527,99.484 C61.092,98.982 61.884,98.677 62.922,98.714 C64.891,98.783 66.189,100.046 66.731,101.538 C67.024,101.058 67.217,100.507 67.237,99.906 C67.303,98.046 65.848,96.484 63.989,96.419 C62.192,96.355 60.688,97.714 60.527,99.484" id="Fill-151" fill="#2B3135"></path>
                <path d="M27.813,96.419 C29.609,96.355 31.113,97.714 31.275,99.484 C30.71,98.982 29.919,98.677 28.881,98.714 C26.911,98.783 25.613,100.046 25.07,101.538 C24.777,101.058 24.586,100.507 24.564,99.906 C24.499,98.046 25.954,96.484 27.813,96.419 Z M27.392,109.022 C32.602,109.206 36.975,105.133 37.16,99.923 C37.348,94.712 33.274,90.337 28.065,90.153 C22.853,89.965 18.48,94.039 18.293,99.249 C18.106,104.46 22.179,108.835 27.392,109.022 Z" id="Fill-152" fill="#FFFFFE"></path>
                <path d="M28.881,98.714 C29.919,98.677 30.71,98.982 31.275,99.484 C31.113,97.714 29.609,96.355 27.813,96.419 C25.954,96.484 24.499,98.046 24.564,99.906 C24.586,100.507 24.777,101.058 25.07,101.538 C25.613,100.046 26.911,98.783 28.881,98.714" id="Fill-153" fill="#2B3135"></path>
                <path d="M46.828,150.31 C42.548,150.31 38.923,149.835 35.852,149.031 C35.923,150.533 35.993,152.035 36.063,153.537 C36.189,156.192 38.437,158.237 41.093,158.169 C41.296,158.165 41.692,158.162 41.892,158.158 C44.55,158.099 47,155.951 47,153.293 L47,152.638 C47,155.47 48.948,157.757 51.774,157.825 C54.616,157.889 56.809,155.71 56.941,152.883 C56.998,151.664 56.998,150.444 57.056,149.224 C54.16,149.907 50.743,150.31 46.828,150.31" id="Fill-154" fill="#FFFFFE"></path>
                <path d="M31.404,133.575 C32.102,129.296 40.131,131.739 38.733,140.813 C38.733,140.813 30.708,137.854 31.404,133.575 M61.652,133.575 C62.349,137.854 54.323,140.813 54.323,140.813 C52.926,131.739 60.953,129.296 61.652,133.575 M46.808,111.487 C36.041,111.487 19.605,117.546 19.605,131.24 C19.605,131.386 19.614,131.54 19.62,131.699 C19.808,136.202 22.789,145.61 35.85,149.031 C38.921,149.835 42.547,150.31 46.827,150.31 C50.742,150.31 54.081,149.907 56.977,149.224 C71.162,145.879 74,135.652 74,131.265 L74,131.24 C74,117.546 57.572,111.487 46.808,111.487" id="Fill-155" fill="#A3B6B9"></path>
                <path d="M54.323,140.813 C54.323,140.813 62.349,137.854 61.652,133.575 C60.953,129.296 52.926,131.739 54.323,140.813" id="Fill-156" fill="#343E41"></path>
                <path d="M31.404,133.575 C30.708,137.854 38.733,140.813 38.733,140.813 C40.131,131.739 32.102,129.296 31.404,133.575" id="Fill-157" fill="#343E41"></path>
                <path d="M30.852,52.776 C31.392,43.801 26.267,17.434 23.119,18.456 C19.971,19.479 20.535,30.412 21.238,35.935 C21.939,41.458 28.25,54.25 28.25,54.25 L30.852,52.776" id="Fill-158" fill="#F5C9AB"></path>
                <path d="M63.318,51.879 C63.318,51.879 70.262,39.418 71.24,33.939 C72.219,28.458 73.331,17.568 70.239,16.388 C67.146,15.209 60.705,41.287 60.794,50.276 L63.318,51.879" id="Fill-159" fill="#F5C9AB"></path>
                <path d="M54,181.388 L54,167.874 C53.981,167.879 53.962,167.884 53.943,167.888 L53.943,167.874 C51.575,168.36 49.121,168.615 46.61,168.621 L46.61,155.09 C46.86,154.535 47,153.928 47,153.293 L47,152.638 C47,155.47 48.948,157.757 51.774,157.825 C51.815,157.826 51.856,157.826 51.897,157.826 C54.679,157.826 56.81,155.67 56.941,152.883 C56.998,151.664 56.998,150.444 57.056,149.224 C57.037,149.229 57.017,149.233 56.997,149.238 C56.998,149.233 56.998,149.229 56.998,149.224 C71.183,145.879 74.03,135.652 74.04,131.265 C77.115,128.993 79.901,126.355 82.328,123.407 C82.964,126.116 83.31,128.937 83.31,131.84 C83.31,132.353 83.3,132.864 83.279,133.371 C82.967,140.988 80.337,148.005 76.078,153.742 C77.941,157.744 80.293,160.46 82.877,161.553 C83.072,161.636 83.269,161.709 83.467,161.773 C84.124,161.985 84.797,162.091 85.485,162.091 C86.881,162.091 88.336,161.655 89.834,160.79 C89.848,160.781 89.862,160.773 89.876,160.765 C89.888,160.758 89.9,160.751 89.912,160.744 C89.951,160.91 89.984,161.073 90.039,161.248 C90.499,162.722 91.135,163.674 91.885,164.225 C89.757,165.46 87.596,166.091 85.488,166.092 C84.388,166.092 83.311,165.921 82.252,165.579 C78.728,164.441 75.694,161.533 73.3,157.078 C73.294,157.084 73.288,157.091 73.281,157.097 C73.278,157.091 73.275,157.085 73.271,157.079 C73.202,157.153 73.132,157.226 73.061,157.299 C72.634,157.659 72.066,158.01 72.005,158.356 C71.985,158.375 71.964,158.395 71.943,158.415 L71.943,181.312 C69.938,178.633 66.644,176.899 63,176.899 C62.991,176.899 62.981,176.899 62.972,176.899 C62.962,176.899 62.953,176.899 62.943,176.899 C61.753,176.899 60.626,177.084 59.575,177.426 C57.311,178.142 55.353,179.546 54,181.388" id="Fill-161" fill="#708E97"></path>
                <path d="M93.714,164.814 C93.056,164.814 92.439,164.631 91.885,164.225 C91.135,163.674 90.499,162.722 90.039,161.248 C89.984,161.073 89.951,160.91 89.912,160.744 C88.589,155.124 95.849,154.219 100.664,154.219 C102.954,154.219 104.691,154.423 104.691,154.423 C102.693,158.666 97.527,164.814 93.714,164.814" id="Fill-162" fill="#839CA4"></path>
                <path d="M74,189.538 L52,189.345 L52,188.196 C52,185.636 52.685,183.282 54.12,181.388 C55.515,179.546 57.377,178.142 59.575,177.426 C60.626,177.084 61.753,176.899 62.943,176.899 C62.953,176.899 62.962,176.899 62.972,176.899 C66.638,176.908 69.766,178.673 71.823,181.388 C73.259,183.283 74,185.636 74,188.196 L74,189.538" id="Fill-163" fill="#F7D0B4"></path>
                <path d="M74,131.265 L74,131.24 C74,117.546 57.572,111.487 46.808,111.487 C46.776,111.487 46.744,111.487 46.713,111.487 C46.679,111.487 46.645,111.487 46.61,111.487 L46.61,47.938 C47.681,46.285 49.164,44.683 50.947,43.955 C50.948,43.955 50.949,43.954 50.949,43.954 C50.957,43.951 50.964,43.948 50.971,43.945 C50.973,43.945 50.974,43.944 50.976,43.943 C50.983,43.941 50.989,43.938 50.996,43.935 C50.998,43.935 51,43.934 51.002,43.933 C51.008,43.931 51.014,43.928 51.02,43.926 C51.023,43.925 51.026,43.924 51.028,43.923 C51.034,43.921 51.039,43.918 51.045,43.916 C51.048,43.915 51.051,43.914 51.054,43.913 C51.059,43.911 51.064,43.909 51.07,43.907 C51.073,43.905 51.077,43.904 51.081,43.903 C51.085,43.901 51.09,43.899 51.095,43.897 C51.099,43.896 51.102,43.894 51.106,43.893 C51.111,43.891 51.115,43.89 51.12,43.888 C51.124,43.886 51.129,43.885 51.133,43.883 C51.137,43.881 51.141,43.88 51.144,43.879 C51.149,43.877 51.154,43.875 51.16,43.873 C51.163,43.872 51.166,43.871 51.169,43.87 C51.175,43.868 51.181,43.866 51.186,43.864 C51.189,43.863 51.192,43.862 51.194,43.861 C51.201,43.859 51.206,43.856 51.213,43.854 C51.215,43.853 51.217,43.853 51.22,43.852 C51.226,43.849 51.233,43.847 51.24,43.845 C51.241,43.844 51.243,43.844 51.245,43.843 C51.252,43.841 51.259,43.838 51.266,43.836 C51.267,43.835 51.269,43.835 51.27,43.834 C51.278,43.832 51.285,43.829 51.292,43.827 C51.293,43.826 51.294,43.826 51.296,43.826 C51.303,43.823 51.311,43.82 51.319,43.818 C51.319,43.818 51.32,43.817 51.321,43.817 C51.329,43.815 51.337,43.812 51.345,43.809 C51.345,43.809 51.346,43.809 51.347,43.809 C51.355,43.806 51.363,43.804 51.37,43.801 C51.371,43.801 51.372,43.801 51.373,43.8 C51.381,43.798 51.389,43.795 51.397,43.792 C51.398,43.792 51.398,43.792 51.398,43.792 C51.407,43.79 51.415,43.787 51.423,43.785 C51.424,43.784 51.424,43.784 51.425,43.784 C51.433,43.781 51.442,43.779 51.45,43.776 C51.641,43.718 51.835,43.67 52.032,43.634 C52.105,43.62 52.173,43.614 52.238,43.614 C52.676,43.614 52.918,43.908 52.919,44.237 C52.92,44.477 52.793,44.736 52.52,44.912 C51.133,45.806 49.804,46.639 48.656,47.667 C51.15,47.779 53.594,48.086 55.97,48.578 C55.97,48.578 55.97,48.578 55.971,48.578 C53.84,21.981 67.27,0.458 74.448,0.459 C74.77,0.459 75.08,0.503 75.375,0.591 C82.525,2.73 82.348,26.999 79.645,35.851 C77.58,42.614 72.405,50.636 70.079,54.047 C83.721,62.115 92.869,76.967 92.869,93.964 C92.869,105.145 88.899,115.4 82.308,123.407 C79.882,126.355 77,128.993 74,131.265 M64.07,109.028 C64.183,109.028 64.296,109.026 64.41,109.022 C69.512,108.839 73.521,104.647 73.515,99.584 C73.515,99.473 73.513,99.361 73.509,99.249 C73.327,94.157 69.146,90.151 64.092,90.147 C64.089,90.147 64.085,90.147 64.082,90.147 C63.967,90.147 63.852,90.149 63.736,90.153 C58.639,90.333 54.63,94.526 54.635,99.589 C54.636,99.7 54.638,99.811 54.642,99.923 C54.823,105.016 59.005,109.023 64.06,109.028 C64.063,109.028 64.067,109.028 64.07,109.028 M60.794,50.276 L63.318,51.879 C63.318,51.879 70.262,39.418 71.24,33.939 C71.736,31.161 72.267,26.994 72.266,23.405 C72.266,19.913 71.764,16.97 70.239,16.388 C70.171,16.362 70.101,16.349 70.03,16.349 C70.01,16.349 69.99,16.35 69.969,16.352 C69.962,16.353 69.954,16.354 69.946,16.355 C68.124,16.604 65.368,24.798 63.356,33.402 L63.356,33.404 C63.35,33.429 63.344,33.455 63.338,33.481 C63.337,33.485 63.336,33.489 63.335,33.493 L63.335,33.495 C61.861,39.816 60.792,46.344 60.793,50.093 C60.793,50.155 60.793,50.215 60.794,50.276" id="Fill-164" fill="#839CA4"></path>
                <path d="M64.07,109.028 C64.067,109.028 64.063,109.028 64.06,109.028 C59.006,109.023 54.823,105.016 54.642,99.923 C54.638,99.811 54.636,99.7 54.635,99.589 C54.63,94.526 58.639,90.333 63.736,90.153 C63.852,90.149 63.967,90.147 64.082,90.147 C64.085,90.147 64.089,90.147 64.092,90.147 C69.146,90.152 73.327,94.158 73.509,99.249 C73.513,99.361 73.515,99.473 73.515,99.584 C73.521,104.647 69.512,108.839 64.41,109.022 C64.296,109.026 64.183,109.028 64.07,109.028 M62.922,98.714 C64.891,98.783 66.189,100.046 66.731,101.538 C67.024,101.058 67.217,100.507 67.237,99.906 C67.239,99.862 67.24,99.819 67.239,99.775 C67.234,97.974 65.804,96.482 63.989,96.419 C63.948,96.418 63.908,96.417 63.867,96.417 C62.124,96.417 60.685,97.755 60.527,99.484 C60.533,99.479 60.538,99.474 60.543,99.47 C60.549,99.465 60.554,99.46 60.56,99.455 C60.564,99.452 60.568,99.449 60.572,99.445 C60.575,99.442 60.578,99.439 60.582,99.436 C61.109,98.991 61.826,98.713 62.745,98.711 C62.747,98.711 62.75,98.711 62.752,98.711 C62.753,98.711 62.753,98.711 62.754,98.711 C62.809,98.711 62.865,98.712 62.922,98.714" id="Fill-166" fill="#FFFFFE"></path>
                <path d="M66.731,101.538 C66.189,100.046 64.891,98.783 62.922,98.714 C62.865,98.712 62.809,98.711 62.754,98.711 C62.753,98.711 62.753,98.711 62.752,98.711 C62.75,98.711 62.747,98.711 62.745,98.711 C61.826,98.713 61.109,98.991 60.582,99.436 C60.578,99.439 60.575,99.442 60.572,99.445 C60.568,99.449 60.564,99.452 60.56,99.455 C60.554,99.46 60.549,99.465 60.543,99.47 C60.538,99.474 60.533,99.479 60.527,99.484 C60.685,97.755 62.124,96.417 63.867,96.417 C63.908,96.417 63.949,96.418 63.989,96.419 C65.804,96.482 67.234,97.974 67.239,99.775 C67.24,99.819 67.239,99.862 67.237,99.906 C67.217,100.507 67.024,101.058 66.731,101.538" id="Fill-167" fill="#3C4246"></path>
                <path d="M51.897,157.826 C51.856,157.826 51.815,157.826 51.774,157.825 C48.948,157.757 47,155.47 47,152.638 L47,153.293 C47,153.928 46.86,154.535 46.61,155.09 L46.61,150.31 C46.682,150.31 46.755,150.31 46.827,150.31 C46.827,150.31 46.827,150.31 46.828,150.31 L46.829,150.31 C46.858,150.31 46.888,150.31 46.917,150.31 C46.919,150.31 46.922,150.31 46.925,150.31 C46.951,150.31 46.978,150.31 47.004,150.31 C47.009,150.31 47.016,150.31 47.021,150.31 C47.044,150.31 47.067,150.31 47.09,150.309 C47.099,150.309 47.108,150.309 47.118,150.309 C47.137,150.309 47.156,150.309 47.175,150.309 C47.188,150.309 47.202,150.309 47.215,150.309 C47.23,150.309 47.245,150.309 47.259,150.308 C47.278,150.308 47.296,150.308 47.315,150.308 C47.324,150.308 47.332,150.308 47.341,150.308 C47.366,150.308 47.391,150.307 47.416,150.307 C47.418,150.307 47.42,150.307 47.422,150.307 C51.063,150.269 54.261,149.878 56.997,149.238 C57.017,149.233 57.037,149.229 57.056,149.224 C56.998,150.444 56.998,151.664 56.941,152.883 C56.81,155.67 54.679,157.826 51.897,157.826" id="Fill-168" fill="#FFFFFE"></path>
                <path d="M46.827,150.31 C46.755,150.31 46.682,150.31 46.61,150.31 L46.61,111.487 C46.645,111.487 46.679,111.487 46.713,111.487 C46.744,111.487 46.776,111.487 46.808,111.487 C57.572,111.487 74,117.546 74,131.24 L74,131.265 C74,135.652 71.162,145.879 56.977,149.224 C54.229,149.872 51.082,150.268 47.422,150.307 C47.42,150.307 47.418,150.307 47.416,150.307 C47.391,150.307 47.366,150.308 47.341,150.308 C47.332,150.308 47.324,150.308 47.315,150.308 C47.296,150.308 47.278,150.308 47.259,150.308 C47.245,150.309 47.23,150.309 47.215,150.309 C47.202,150.309 47.188,150.309 47.175,150.309 C47.156,150.309 47.137,150.309 47.118,150.309 C47.109,150.309 47.099,150.309 47.09,150.309 C47.067,150.31 47.044,150.31 47.021,150.31 C47.015,150.31 47.01,150.31 47.004,150.31 C46.978,150.31 46.951,150.31 46.925,150.31 C46.922,150.31 46.919,150.31 46.917,150.31 C46.888,150.31 46.858,150.31 46.829,150.31 L46.828,150.31 C46.827,150.31 46.827,150.31 46.827,150.31 M54.323,140.813 C54.323,140.813 61.704,138.092 61.695,134.095 C61.695,133.924 61.681,133.75 61.652,133.575 C61.43,132.212 60.463,131.531 59.295,131.529 C59.293,131.529 59.292,131.529 59.29,131.529 C59.285,131.529 59.28,131.529 59.275,131.529 C56.79,131.541 53.408,134.614 54.309,140.719 C54.314,140.751 54.318,140.781 54.323,140.813" id="Fill-169" fill="#ADBEC1"></path>
                <path d="M54.323,140.813 C54.318,140.781 54.314,140.751 54.309,140.719 C53.408,134.614 56.79,131.541 59.275,131.529 C59.28,131.529 59.285,131.529 59.29,131.529 C59.292,131.529 59.293,131.529 59.295,131.529 C60.463,131.531 61.43,132.212 61.652,133.575 C61.681,133.75 61.695,133.924 61.695,134.095 C61.704,138.092 54.323,140.813 54.323,140.813" id="Fill-170" fill="#455052"></path>
                <path d="M63.318,51.879 L60.794,50.276 C60.793,50.215 60.793,50.155 60.793,50.093 C60.792,46.344 61.861,39.816 63.335,33.495 C63.335,33.494 63.335,33.494 63.335,33.493 C63.336,33.489 63.337,33.485 63.338,33.481 C63.344,33.455 63.35,33.429 63.356,33.404 L63.356,33.402 C65.368,24.797 68.124,16.602 69.946,16.355 C69.954,16.354 69.962,16.353 69.969,16.352 C69.99,16.35 70.01,16.349 70.03,16.349 C70.101,16.35 70.171,16.362 70.239,16.388 C71.764,16.97 72.266,19.913 72.266,23.405 C72.267,26.994 71.736,31.161 71.24,33.939 C70.262,39.418 63.318,51.879 63.318,51.879" id="Fill-171" fill="#F7D0B4"></path>
                <path d="M46.61,44.347 C47.03,43.361 47.504,42.393 48.081,41.456 C48.478,40.812 47.648,39.984 47.064,40.519 C46.903,40.667 46.76,40.824 46.61,40.979 L46.61,44.347" id="Fill-172" fill="#AD6E3B"></path>
            </g>
        </g>
    </g>
</svg>